<svg width="658" height="51" viewBox="0 0 658 51" fill="none" xmlns="http://www.w3.org/2000/svg">
<path d="M0.5735 49V47.144L3.0055 45.928V4.52L0.5735 3.304V1.448H26.1095C28.9255 1.448 31.4215 1.74666 33.5975 2.344C35.8162 2.89867 37.6935 3.73066 39.2295 4.84C40.7655 5.90666 41.9388 7.22933 42.7495 8.808C43.6028 10.344 44.0295 12.1147 44.0295 14.12C44.0295 16.1253 43.6028 17.9173 42.7495 19.496C41.8962 21.032 40.8722 22.2267 39.6775 23.08C40.7015 23.5067 41.6615 24.0613 42.5575 24.744C43.4962 25.4267 44.3068 26.2587 44.9895 27.24C45.7148 28.1787 46.2908 29.288 46.7175 30.568C47.1442 31.8053 47.3575 33.192 47.3575 34.728C47.3575 37.16 46.8028 39.272 45.6935 41.064C44.6268 42.8133 43.1975 44.2853 41.4055 45.48C39.6562 46.6747 37.7148 47.5707 35.5815 48.168C33.4482 48.7227 31.3575 49 29.3095 49H0.5735ZM28.9255 40.68C30.5468 40.68 31.9548 40.5093 33.1495 40.168C34.3442 39.8267 35.3255 39.3787 36.0935 38.824C36.9042 38.2267 37.5015 37.5653 37.8855 36.84C38.3122 36.1147 38.5255 35.3467 38.5255 34.536C38.5255 33.768 38.3122 33 37.8855 32.232C37.5015 31.464 36.9042 30.7813 36.0935 30.184C35.3255 29.544 34.3442 29.032 33.1495 28.648C31.9548 28.264 30.5468 28.072 28.9255 28.072H12.0935V40.68H28.9255ZM26.3655 20.712C27.8588 20.712 29.1602 20.5413 30.2695 20.2C31.3788 19.8587 32.2962 19.4107 33.0215 18.856C33.7468 18.3013 34.2802 17.6827 34.6215 17C34.9628 16.3173 35.1335 15.6347 35.1335 14.952C35.1335 14.2693 34.9628 13.608 34.6215 12.968C34.2802 12.2853 33.7468 11.688 33.0215 11.176C32.2962 10.6213 31.3788 10.1947 30.2695 9.896C29.1602 9.59733 27.8588 9.448 26.3655 9.448H12.0935V20.712H26.3655ZM87.888 0.615997C92.112 0.615997 95.9947 1.27733 99.536 2.6C103.077 3.92267 106.128 5.736 108.688 8.04C111.291 10.3013 113.317 12.968 114.768 16.04C116.261 19.112 117.008 22.3973 117.008 25.896C117.008 29.5227 116.261 32.8293 114.768 35.816C113.317 38.8027 111.291 41.3627 108.688 43.496C106.128 45.6293 103.077 47.272 99.536 48.424C95.9947 49.576 92.112 50.152 87.888 50.152C83.792 50.152 79.9733 49.576 76.432 48.424C72.8907 47.272 69.8187 45.6293 67.216 43.496C64.6133 41.3627 62.5653 38.8027 61.072 35.816C59.5787 32.8293 58.832 29.5227 58.832 25.896C58.832 22.3973 59.5147 19.112 60.88 16.04C62.288 12.968 64.2507 10.3013 66.768 8.04C69.328 5.736 72.4 3.92267 75.984 2.6C79.568 1.27733 83.536 0.615997 87.888 0.615997ZM87.888 9.064C85.072 9.064 82.4693 9.512 80.08 10.408C77.7333 11.2613 75.6853 12.456 73.936 13.992C72.2293 15.4853 70.8853 17.256 69.904 19.304C68.9227 21.352 68.432 23.5493 68.432 25.896C68.432 28.1147 68.9227 30.2053 69.904 32.168C70.8853 34.088 72.2507 35.7733 74 37.224C75.7493 38.632 77.7973 39.7627 80.144 40.616C82.5333 41.4267 85.1147 41.832 87.888 41.832C90.704 41.832 93.2853 41.448 95.632 40.68C97.9787 39.8693 100.005 38.7813 101.712 37.416C103.461 36.008 104.827 34.344 105.808 32.424C106.789 30.4613 107.28 28.2853 107.28 25.896C107.28 23.5493 106.789 21.352 105.808 19.304C104.869 17.256 103.525 15.4853 101.776 13.992C100.069 12.456 98.0427 11.2613 95.696 10.408C93.3493 9.512 90.7467 9.064 87.888 9.064ZM157.351 0.615997C161.575 0.615997 165.457 1.27733 168.999 2.6C172.54 3.92267 175.591 5.736 178.151 8.04C180.753 10.3013 182.78 12.968 184.231 16.04C185.724 19.112 186.471 22.3973 186.471 25.896C186.471 29.5227 185.724 32.8293 184.231 35.816C182.78 38.8027 180.753 41.3627 178.151 43.496C175.591 45.6293 172.54 47.272 168.999 48.424C165.457 49.576 161.575 50.152 157.351 50.152C153.255 50.152 149.436 49.576 145.895 48.424C142.353 47.272 139.281 45.6293 136.679 43.496C134.076 41.3627 132.028 38.8027 130.535 35.816C129.041 32.8293 128.295 29.5227 128.295 25.896C128.295 22.3973 128.977 19.112 130.343 16.04C131.751 12.968 133.713 10.3013 136.231 8.04C138.791 5.736 141.863 3.92267 145.447 2.6C149.031 1.27733 152.999 0.615997 157.351 0.615997ZM157.351 9.064C154.535 9.064 151.932 9.512 149.543 10.408C147.196 11.2613 145.148 12.456 143.399 13.992C141.692 15.4853 140.348 17.256 139.367 19.304C138.385 21.352 137.895 23.5493 137.895 25.896C137.895 28.1147 138.385 30.2053 139.367 32.168C140.348 34.088 141.713 35.7733 143.463 37.224C145.212 38.632 147.26 39.7627 149.607 40.616C151.996 41.4267 154.577 41.832 157.351 41.832C160.167 41.832 162.748 41.448 165.095 40.68C167.441 39.8693 169.468 38.7813 171.175 37.416C172.924 36.008 174.289 34.344 175.271 32.424C176.252 30.4613 176.743 28.2853 176.743 25.896C176.743 23.5493 176.252 21.352 175.271 19.304C174.332 17.256 172.988 15.4853 171.239 13.992C169.532 12.456 167.505 11.2613 165.159 10.408C162.812 9.512 160.209 9.064 157.351 9.064ZM197.336 49V47.144L199.768 45.928V4.52L197.336 3.304V1.448H211.352V3.304L208.856 4.52V22.12L229.976 4.52L228.888 3.304V1.448H246.232V3.304L242.456 4.52L224.6 19.496L245.4 45.928L248.792 47.08V49H231.128V47.144L233.752 46.248L218.072 24.616L208.856 32.296V45.928L211.352 47.144V49H197.336ZM325.784 1.448L349.336 45.928L352.472 47.144V49H336.536V47.144L338.456 45.928L334.616 37.16H308.312L303.448 45.928L305.24 47.144V49H290.328V47.144L293.4 45.928L316.504 1.448H325.784ZM320.984 10.92L311.704 29.8H330.264L320.984 10.92ZM395.498 49V47.144L397.93 45.928V4.52L395.498 3.304V1.448H424.618C427.349 1.448 429.781 1.81067 431.914 2.536C434.09 3.26133 435.904 4.28533 437.354 5.608C438.848 6.888 439.978 8.46667 440.746 10.344C441.557 12.2213 441.962 14.3333 441.962 16.68C441.962 20.0507 441.045 22.888 439.21 25.192C437.376 27.4533 434.986 29.1173 432.042 30.184L443.754 45.928L447.082 47.144V49H431.338V47.144L432.874 45.864L423.786 32.68H407.018V45.928L409.514 47.144V49H395.498ZM422.89 24.232C424.341 24.232 425.685 24.0827 426.922 23.784C428.16 23.4853 429.226 23.016 430.122 22.376C431.061 21.736 431.786 20.9467 432.298 20.008C432.81 19.0693 433.066 17.96 433.066 16.68C433.066 15.4853 432.81 14.44 432.298 13.544C431.786 12.648 431.061 11.9013 430.122 11.304C429.226 10.664 428.16 10.1947 426.922 9.896C425.685 9.59733 424.341 9.448 422.89 9.448H407.018V24.232H422.89ZM483.251 0.615997C487.475 0.615997 491.357 1.27733 494.899 2.6C498.44 3.92267 501.491 5.736 504.051 8.04C506.653 10.3013 508.68 12.968 510.131 16.04C511.624 19.112 512.371 22.3973 512.371 25.896C512.371 29.5227 511.624 32.8293 510.131 35.816C508.68 38.8027 506.653 41.3627 504.051 43.496C501.491 45.6293 498.44 47.272 494.899 48.424C491.357 49.576 487.475 50.152 483.251 50.152C479.155 50.152 475.336 49.576 471.795 48.424C468.253 47.272 465.181 45.6293 462.579 43.496C459.976 41.3627 457.928 38.8027 456.435 35.816C454.941 32.8293 454.195 29.5227 454.195 25.896C454.195 22.3973 454.877 19.112 456.243 16.04C457.651 12.968 459.613 10.3013 462.131 8.04C464.691 5.736 467.763 3.92267 471.347 2.6C474.931 1.27733 478.899 0.615997 483.251 0.615997ZM483.251 9.064C480.435 9.064 477.832 9.512 475.443 10.408C473.096 11.2613 471.048 12.456 469.299 13.992C467.592 15.4853 466.248 17.256 465.267 19.304C464.285 21.352 463.795 23.5493 463.795 25.896C463.795 28.1147 464.285 30.2053 465.267 32.168C466.248 34.088 467.613 35.7733 469.363 37.224C471.112 38.632 473.16 39.7627 475.507 40.616C477.896 41.4267 480.477 41.832 483.251 41.832C486.067 41.832 488.648 41.448 490.995 40.68C493.341 39.8693 495.368 38.7813 497.075 37.416C498.824 36.008 500.189 34.344 501.171 32.424C502.152 30.4613 502.643 28.2853 502.643 25.896C502.643 23.5493 502.152 21.352 501.171 19.304C500.232 17.256 498.888 15.4853 497.139 13.992C495.432 12.456 493.405 11.2613 491.059 10.408C488.712 9.512 486.109 9.064 483.251 9.064ZM552.713 0.615997C556.937 0.615997 560.82 1.27733 564.361 2.6C567.902 3.92267 570.953 5.736 573.513 8.04C576.116 10.3013 578.142 12.968 579.593 16.04C581.086 19.112 581.833 22.3973 581.833 25.896C581.833 29.5227 581.086 32.8293 579.593 35.816C578.142 38.8027 576.116 41.3627 573.513 43.496C570.953 45.6293 567.902 47.272 564.361 48.424C560.82 49.576 556.937 50.152 552.713 50.152C548.617 50.152 544.798 49.576 541.257 48.424C537.716 47.272 534.644 45.6293 532.041 43.496C529.438 41.3627 527.39 38.8027 525.897 35.816C524.404 32.8293 523.657 29.5227 523.657 25.896C523.657 22.3973 524.34 19.112 525.705 16.04C527.113 12.968 529.076 10.3013 531.593 8.04C534.153 5.736 537.225 3.92267 540.809 2.6C544.393 1.27733 548.361 0.615997 552.713 0.615997ZM552.713 9.064C549.897 9.064 547.294 9.512 544.905 10.408C542.558 11.2613 540.51 12.456 538.761 13.992C537.054 15.4853 535.71 17.256 534.729 19.304C533.748 21.352 533.257 23.5493 533.257 25.896C533.257 28.1147 533.748 30.2053 534.729 32.168C535.71 34.088 537.076 35.7733 538.825 37.224C540.574 38.632 542.622 39.7627 544.969 40.616C547.358 41.4267 549.94 41.832 552.713 41.832C555.529 41.832 558.11 41.448 560.457 40.68C562.804 39.8693 564.83 38.7813 566.537 37.416C568.286 36.008 569.652 34.344 570.633 32.424C571.614 30.4613 572.105 28.2853 572.105 25.896C572.105 23.5493 571.614 21.352 570.633 19.304C569.694 17.256 568.35 15.4853 566.601 13.992C564.894 12.456 562.868 11.2613 560.521 10.408C558.174 9.512 555.572 9.064 552.713 9.064ZM593.888 49V47.144L596.32 45.928V4.52L593.888 3.304V1.448H607.392L625.568 36.392L643.744 1.448H657.312V3.304L654.816 4.52V45.928L657.312 47.144V49H643.68V47.144L646.176 45.928V15.016L628.384 49H622.752L605.024 15.016V45.928L607.456 47.144V49H593.888Z" fill="#EFEBE5"/>
</svg>
